<svg width="108" height="56" viewBox="0 0 108 56" fill="none" xmlns="http://www.w3.org/2000/svg">
<path d="M6 2H80C94.3594 2 106 13.6406 106 28V54H12C6.47715 54 2 49.5228 2 44V6C2 3.79086 3.79086 2 6 2Z" stroke="#155DFC" stroke-width="4"/>
<path d="M22.516 19.486C21.4453 20.6447 20.14 21.554 18.6 22.214C17.06 22.8593 15.432 23.1893 13.716 23.204V19.794C15.3 19.7647 16.7373 19.354 18.028 18.562C19.3333 17.7553 20.2427 16.6773 20.756 15.328H14.046V11.94H31.118V15.328H24.782C24.694 15.6947 24.5473 16.1347 24.342 16.648L31.91 20.366L30.216 23.358L22.516 19.486ZM32.086 26.152V29.628H13.078V26.152H20.712V22.478H24.452V26.152H32.086ZM51.0041 15.768V17.066H53.2041V20.168H51.0041V21.84H47.2861V11.5H51.0041V12.666H53.2041V15.768H51.0041ZM39.2121 21.422C38.0241 21.422 36.9681 21.2167 36.0441 20.806C35.1348 20.3953 34.4308 19.816 33.9321 19.068C33.4334 18.32 33.1841 17.4547 33.1841 16.472C33.1841 15.4893 33.4334 14.624 33.9321 13.876C34.4308 13.128 35.1348 12.5487 36.0441 12.138C36.9681 11.7273 38.0241 11.522 39.2121 11.522C40.4001 11.522 41.4488 11.7273 42.3581 12.138C43.2821 12.5487 43.9934 13.128 44.4921 13.876C44.9908 14.624 45.2401 15.4893 45.2401 16.472C45.2401 17.4547 44.9908 18.32 44.4921 19.068C43.9934 19.816 43.2821 20.3953 42.3581 20.806C41.4488 21.2167 40.4001 21.422 39.2121 21.422ZM39.2121 14.536C38.4934 14.536 37.9214 14.712 37.4961 15.064C37.0854 15.416 36.8801 15.8853 36.8801 16.472C36.8801 17.0587 37.0854 17.528 37.4961 17.88C37.9214 18.232 38.4934 18.408 39.2121 18.408C39.9308 18.408 40.4954 18.232 40.9061 17.88C41.3314 17.528 41.5441 17.0587 41.5441 16.472C41.5441 15.8853 41.3314 15.416 40.9061 15.064C40.4954 14.712 39.9308 14.536 39.2121 14.536ZM42.8201 22.104C45.3574 22.104 47.3814 22.4413 48.8921 23.116C50.4174 23.776 51.1801 24.8393 51.1801 26.306C51.1801 27.7727 50.4174 28.836 48.8921 29.496C47.3814 30.1707 45.3574 30.508 42.8201 30.508C40.2828 30.508 38.2514 30.1707 36.7261 29.496C35.2154 28.836 34.4601 27.7727 34.4601 26.306C34.4601 24.8393 35.2154 23.776 36.7261 23.116C38.2514 22.4413 40.2828 22.104 42.8201 22.104ZM42.8201 27.538C44.1254 27.538 45.1741 27.4427 45.9661 27.252C46.7728 27.0467 47.1761 26.7313 47.1761 26.306C47.1761 25.8953 46.7728 25.5873 45.9661 25.382C45.1741 25.1767 44.1254 25.074 42.8201 25.074C41.5148 25.074 40.4588 25.1767 39.6521 25.382C38.8601 25.5873 38.4641 25.8953 38.4641 26.306C38.4641 26.7313 38.8601 27.0467 39.6521 27.252C40.4588 27.4427 41.5148 27.538 42.8201 27.538ZM21.408 34.316V40.7H20.292V34.316H21.408ZM20.604 37.004V37.964H18.72V37.004H20.604ZM19.032 34.52V40.34H17.928V34.52H19.032ZM17.88 40.844C18.6 40.844 19.228 40.928 19.764 41.096C20.308 41.256 20.728 41.492 21.024 41.804C21.32 42.116 21.468 42.48 21.468 42.896C21.468 43.312 21.32 43.676 21.024 43.988C20.736 44.292 20.32 44.524 19.776 44.684C19.24 44.844 18.608 44.924 17.88 44.924C17.152 44.924 16.52 44.844 15.984 44.684C15.448 44.524 15.032 44.292 14.736 43.988C14.448 43.676 14.304 43.312 14.304 42.896C14.304 42.48 14.448 42.116 14.736 41.804C15.032 41.492 15.448 41.256 15.984 41.096C16.528 40.928 17.16 40.844 17.88 40.844ZM17.88 41.78C17.376 41.78 16.944 41.824 16.584 41.912C16.224 42 15.948 42.128 15.756 42.296C15.564 42.456 15.468 42.656 15.468 42.896C15.468 43.128 15.564 43.328 15.756 43.496C15.948 43.656 16.224 43.78 16.584 43.868C16.952 43.956 17.384 44 17.88 44C18.376 44 18.804 43.956 19.164 43.868C19.532 43.78 19.812 43.656 20.004 43.496C20.196 43.328 20.292 43.128 20.292 42.896C20.292 42.544 20.08 42.272 19.656 42.08C19.232 41.88 18.64 41.78 17.88 41.78ZM14.088 35.156V39.212H12.912V35.156H14.088ZM13.608 38.888C14.28 38.888 14.9 38.864 15.468 38.816C16.044 38.768 16.636 38.684 17.244 38.564L17.376 39.536C16.744 39.664 16.132 39.752 15.54 39.8C14.956 39.84 14.312 39.86 13.608 39.86H12.912V38.888H13.608ZM28.7883 35.06V39.512H27.6123V35.06H28.7883ZM28.4763 39.152C29.2843 39.152 30.0803 39.12 30.8643 39.056C31.6563 38.984 32.4563 38.868 33.2643 38.708L33.4083 39.668C32.5763 39.836 31.7563 39.956 30.9483 40.028C30.1483 40.092 29.3243 40.124 28.4763 40.124H27.6123V39.152H28.4763ZM35.4123 34.328V41.984H34.2363V34.328H35.4123ZM36.9123 37.4V38.396H35.0643V37.4H36.9123ZM35.7723 43.76V44.72H28.7403V43.76H35.7723ZM29.9283 41.24V44.252H28.7403V41.24H29.9283ZM46.6926 40.904C47.4126 40.904 48.0366 40.984 48.5646 41.144C49.1006 41.304 49.5086 41.536 49.7886 41.84C50.0766 42.144 50.2206 42.504 50.2206 42.92C50.2206 43.336 50.0766 43.696 49.7886 44C49.5086 44.304 49.1046 44.536 48.5766 44.696C48.0486 44.856 47.4166 44.936 46.6806 44.936C45.9606 44.936 45.3326 44.856 44.7966 44.696C44.2686 44.536 43.8606 44.304 43.5726 44C43.2926 43.696 43.1526 43.336 43.1526 42.92C43.1526 42.504 43.2926 42.144 43.5726 41.84C43.8606 41.536 44.2686 41.304 44.7966 41.144C45.3326 40.984 45.9646 40.904 46.6926 40.904ZM46.6806 41.852C46.1846 41.852 45.7606 41.896 45.4086 41.984C45.0566 42.064 44.7846 42.184 44.5926 42.344C44.4086 42.504 44.3166 42.696 44.3166 42.92C44.3166 43.272 44.5246 43.544 44.9406 43.736C45.3566 43.92 45.9406 44.012 46.6926 44.012C47.4366 44.012 48.0126 43.92 48.4206 43.736C48.8366 43.544 49.0446 43.272 49.0446 42.92C49.0446 42.696 48.9526 42.504 48.7686 42.344C48.5846 42.184 48.3126 42.064 47.9526 41.984C47.6006 41.896 47.1766 41.852 46.6806 41.852ZM50.1006 34.316V40.652H48.9246V34.316H50.1006ZM51.6006 36.908V37.892H49.7766V36.908H51.6006ZM43.3806 34.988V36.476H46.0326V34.988H47.1966V39.92H42.2166V34.988H43.3806ZM43.3806 38.984H46.0326V37.4H43.3806V38.984ZM60.1688 35.204V36.956C60.1688 37.812 60.0448 38.628 59.7968 39.404C59.5488 40.172 59.1928 40.852 58.7288 41.444C58.2648 42.028 57.7248 42.472 57.1088 42.776L56.4008 41.804C56.9448 41.548 57.4288 41.172 57.8528 40.676C58.2768 40.172 58.6048 39.596 58.8368 38.948C59.0768 38.3 59.1968 37.636 59.1968 36.956V35.204H60.1688ZM60.3848 35.204V36.956C60.3848 37.612 60.4968 38.252 60.7208 38.876C60.9528 39.492 61.2768 40.04 61.6928 40.52C62.1168 41 62.6008 41.364 63.1448 41.612L62.4488 42.56C61.8408 42.272 61.3048 41.844 60.8408 41.276C60.3848 40.708 60.0328 40.052 59.7848 39.308C59.5368 38.564 59.4128 37.78 59.4128 36.956V35.204H60.3848ZM65.2088 34.304V44.948H64.0328V34.304H65.2088ZM76.3451 34.988V35.792C76.3451 36.544 76.1531 37.248 75.7691 37.904C75.3851 38.552 74.8611 39.104 74.1971 39.56C73.5411 40.008 72.8211 40.316 72.0371 40.484L71.5211 39.512C72.2011 39.384 72.8331 39.136 73.4171 38.768C74.0011 38.392 74.4651 37.94 74.8091 37.412C75.1531 36.884 75.3251 36.344 75.3251 35.792V34.988H76.3451ZM76.5731 34.988V35.792C76.5731 36.352 76.7451 36.896 77.0891 37.424C77.4331 37.944 77.8971 38.392 78.4811 38.768C79.0731 39.136 79.7091 39.384 80.3891 39.512L79.8611 40.484C79.0771 40.316 78.3571 40.008 77.7011 39.56C77.0451 39.112 76.5211 38.56 76.1291 37.904C75.7451 37.248 75.5531 36.544 75.5531 35.792V34.988H76.5731ZM80.8091 42.584V43.544H71.1851V42.584H80.8091ZM92.1494 36.932V37.892H90.4094V36.932H92.1494ZM87.0254 39.188C87.8814 39.188 88.5814 39.172 89.1254 39.14C89.6694 39.108 90.2214 39.04 90.7814 38.936L90.8774 39.86C90.3174 39.972 89.7614 40.044 89.2094 40.076C88.6654 40.108 87.9374 40.124 87.0254 40.124H86.3294V39.188H87.0254ZM90.3374 34.976V35.936H87.4574V39.74H86.3294V34.976H90.3374ZM89.9294 37.052V37.964H87.1094V37.052H89.9294ZM94.8494 34.316V40.688H93.7334V34.316H94.8494ZM92.7854 34.484V40.58H91.6694V34.484H92.7854ZM94.8494 41.156V44.804H87.8054V41.156H94.8494ZM88.9574 42.08V43.868H93.7094V42.08H88.9574Z" fill="#155DFC"/>
</svg>
